<?xml version="1.0" encoding="UTF-8" standalone="no"?>
<svg
   xmlns:dc="http://purl.org/dc/elements/1.1/"
   xmlns:cc="http://creativecommons.org/ns#"
   xmlns:rdf="http://www.w3.org/1999/02/22-rdf-syntax-ns#"
   xmlns:svg="http://www.w3.org/2000/svg"
   xmlns="http://www.w3.org/2000/svg"
   xmlns:sodipodi="http://sodipodi.sourceforge.net/DTD/sodipodi-0.dtd"
   xmlns:inkscape="http://www.inkscape.org/namespaces/inkscape"
   version="1.0"
   width="153.05696pt"
   height="166.1749pt"
   viewBox="0 0 153.05696 166.1749"
   preserveAspectRatio="xMidYMid meet"
   id="svg116"
   sodipodi:docname="logo2.svg"
   inkscape:version="1.0.2 (e86c8708, 2021-01-15)">
  <metadata
     id="metadata122">
    <rdf:RDF>
      <cc:Work
         rdf:about="">
        <dc:format>image/svg+xml</dc:format>
        <dc:type
           rdf:resource="http://purl.org/dc/dcmitype/StillImage" />
        <dc:title></dc:title>
      </cc:Work>
    </rdf:RDF>
  </metadata>
  <defs
     id="defs120" />
  <sodipodi:namedview
     pagecolor="#ffffff"
     bordercolor="#666666"
     borderopacity="1"
     objecttolerance="10"
     gridtolerance="10"
     guidetolerance="10"
     inkscape:pageopacity="0"
     inkscape:pageshadow="2"
     inkscape:window-width="1053"
     inkscape:window-height="741"
     id="namedview118"
     showgrid="false"
     inkscape:zoom="2.1283784"
     inkscape:cx="101.38263"
     inkscape:cy="110.23319"
     inkscape:window-x="682"
     inkscape:window-y="257"
     inkscape:window-maximized="0"
     inkscape:current-layer="svg116" />
  <g
     transform="matrix(0.1,0,0,-0.1,-20.963025,212.17489)"
     fill="#000000"
     stroke="none"
     id="g114">
    <path
       d="m 659,2099 c -32,-32 -49,-82 -49,-144 0,-63 -2,-67 -113,-150 -126,-94 -232,-257 -271,-416 -24,-96 -21,-265 5,-365 86,-330 408,-564 776,-564 307,0 586,198 695,493 65,174 46,415 -49,614 -34,73 -106,168 -152,201 l -38,27 -16,133 c -18,157 -30,182 -84,182 -30,0 -44,-8 -78,-44 -24,-24 -51,-65 -60,-91 -16,-39 -21,-46 -39,-40 -76,22 -163,35 -242,35 h -90 l -24,56 c -36,87 -121,123 -171,73 z m 104,-6 c 8,-10 25,-40 36,-66 24,-56 62,-199 55,-206 -2,-3 -28,19 -57,47 -29,29 -57,52 -63,52 -5,0 4,-30 21,-66 24,-53 35,-66 58,-71 32,-7 33,-12 7,-46 -11,-14 -20,-29 -20,-34 0,-5 -13,-20 -30,-35 -33,-28 -40,-68 -16,-87 23,-20 52,3 80,63 14,30 26,59 26,64 0,4 12,20 28,34 20,19 32,24 47,18 32,-14 123,-11 158,4 18,7 42,23 55,35 26,25 29,10 7,-33 -15,-28 -14,-29 34,-75 26,-25 53,-54 58,-64 6,-11 15,-15 26,-12 14,6 13,13 -10,58 -59,115 -56,98 -33,199 27,115 46,162 82,200 23,24 30,27 47,18 33,-17 42,-44 56,-168 26,-224 29,-343 11,-404 -22,-75 -20,-103 9,-204 30,-103 33,-222 9,-319 -14,-54 -14,-73 -4,-112 17,-69 40,-113 59,-113 32,0 90,60 125,130 52,105 70,198 63,344 -8,189 -65,335 -180,462 -27,30 -47,59 -45,65 6,19 110,-102 146,-169 107,-201 132,-446 63,-631 -80,-216 -255,-387 -467,-457 -80,-26 -102,-29 -219,-29 -105,0 -145,5 -210,23 -277,79 -461,269 -520,536 -24,106 -16,283 15,376 49,143 132,268 234,351 74,60 101,66 32,7 -93,-80 -202,-245 -239,-363 -24,-76 -39,-199 -32,-263 15,-137 92,-317 174,-405 49,-52 56,-54 89,-29 23,18 23,19 8,73 -13,47 -19,118 -16,209 0,14 -2,41 -5,61 -6,29 -2,41 19,66 23,27 24,31 9,46 -14,14 -15,20 -3,41 8,16 10,39 6,65 -5,31 -1,50 20,89 23,45 26,63 30,193 2,79 8,161 13,181 5,20 6,47 4,61 -3,13 2,38 11,55 9,17 16,50 16,74 0,60 16,112 46,148 29,34 54,38 77,13 z m 375,-164 c 28,-7 52,-18 52,-25 0,-9 -12,-9 -52,2 -30,8 -101,14 -165,14 -63,0 -113,4 -113,9 0,5 10,12 23,15 35,8 197,-2 255,-15 z"
       id="path76" />
    <path
       d="m 1360,1793 c 0,-30 -7,-50 -25,-72 -19,-22 -24,-36 -19,-55 9,-35 24,-43 41,-20 13,18 15,18 24,2 6,-10 17,-18 24,-18 19,0 19,29 1,55 -7,11 -16,44 -19,74 -8,69 -27,92 -27,34 z"
       id="path78" />
    <path
       d="m 650,1725 c 0,-3 12,-11 28,-17 26,-11 26,-12 4,-15 -12,-3 -29,3 -38,12 -21,21 -29,13 -14,-15 6,-12 9,-28 6,-36 -8,-21 24,-31 39,-11 7,10 16,13 25,7 32,-20 42,26 13,52 -19,17 -63,33 -63,23 z"
       id="path80" />
    <path
       d="m 1030,1655 c -10,-12 -9,-16 3,-21 17,-6 57,12 57,26 0,16 -46,12 -60,-5 z"
       id="path82" />
    <path
       d="m 880,1595 c -22,-30 -40,-61 -40,-68 0,-16 -115,-127 -131,-127 -5,0 -9,-6 -9,-14 0,-9 15,-17 40,-21 51,-9 60,-36 31,-93 -12,-23 -21,-49 -21,-58 0,-9 -15,-31 -34,-50 -31,-31 -40,-34 -90,-34 -31,0 -56,-4 -56,-9 0,-14 132,-90 168,-97 18,-4 41,-18 52,-31 12,-16 24,-22 32,-17 11,6 11,5 0,-8 -8,-11 -9,-18 -3,-23 6,-3 15,-23 21,-45 8,-31 18,-42 53,-59 24,-12 49,-21 55,-21 24,0 11,49 -23,85 -19,21 -37,46 -40,56 -4,10 -11,19 -16,19 -6,0 -7,5 -4,11 8,12 45,-18 45,-37 0,-13 47,-54 62,-54 5,0 -4,18 -21,39 -22,28 -31,50 -31,77 0,67 -8,82 -47,86 -42,5 -49,-3 -23,-27 28,-25 27,-65 -2,-65 -17,0 -19,3 -10,12 19,19 14,42 -13,68 -13,12 -30,39 -36,59 -12,35 -12,36 40,81 28,25 51,53 51,63 0,20 44,67 102,110 28,21 38,36 43,69 6,34 4,44 -11,55 -13,9 -21,10 -31,1 -11,-9 -13,-4 -7,31 8,49 -10,91 -37,91 -11,0 -36,-24 -59,-55 z m 34,-141 c 3,-9 6,-20 6,-25 0,-12 -37,-12 -45,1 -3,6 -1,10 4,10 6,0 11,7 11,15 0,20 16,19 24,-1 z"
       id="path84" />
    <path
       d="m 1049,1604 c -12,-14 -11,-16 5,-13 11,2 21,10 24,17 5,17 -13,15 -29,-4 z"
       id="path86" />
    <path
       d="m 1162,1587 c -16,-7 -22,-17 -19,-29 7,-24 -1,-23 -24,5 l -18,22 v -40 c 0,-22 8,-62 17,-90 13,-39 25,-54 51,-67 22,-11 40,-31 52,-57 21,-48 30,-50 58,-14 19,23 24,25 47,15 39,-18 44,-15 44,27 0,55 -8,71 -36,71 -17,0 -27,8 -33,24 -5,13 -19,26 -30,29 -15,4 -21,13 -21,35 0,21 -6,31 -20,35 -11,3 -20,12 -20,20 0,20 -20,26 -48,14 z m 59,-160 c -13,-13 -15,1 -4,30 7,17 8,17 11,-1 2,-10 -1,-23 -7,-29 z m 62,-27 c 3,-13 10,-18 21,-14 9,3 13,11 10,16 -4,6 -1,9 7,6 8,-3 15,-14 17,-25 3,-17 -2,-19 -28,-15 -22,3 -35,-1 -44,-14 -13,-17 -15,-16 -29,13 -15,29 -15,31 6,41 31,15 34,14 40,-8 z"
       id="path88" />
    <path
       d="m 1306,1581 c -14,-15 -15,-24 -7,-39 15,-28 60,-62 82,-62 24,0 24,6 -2,69 -24,55 -44,64 -73,32 z"
       id="path90" />
    <path
       d="m 633,1565 c -19,-13 -21,-22 -16,-64 3,-30 1,-51 -5,-55 -6,-4 -9,-13 -5,-21 3,-9 0,-22 -7,-30 -10,-13 -10,-19 4,-34 15,-16 15,-19 1,-24 -26,-10 -17,-29 13,-25 24,3 28,9 37,53 8,40 14,50 28,47 10,-2 45,19 82,49 36,29 65,54 65,55 0,1 -17,2 -37,2 -31,0 -45,-8 -81,-44 l -44,-44 7,38 c 4,20 13,44 21,53 12,14 11,18 -9,37 -28,26 -27,26 -54,7 z"
       id="path92" />
    <path
       d="m 1042,1569 c 2,-7 10,-15 17,-17 8,-3 12,1 9,9 -2,7 -10,15 -17,17 -8,3 -12,-1 -9,-9 z"
       id="path94" />
    <path
       d="m 968,1313 c -8,-18 -2,-107 7,-109 12,-4 57,94 49,107 -6,11 -51,12 -56,2 z"
       id="path96" />
    <path
       d="m 1050,1305 c 7,-8 28,-15 46,-15 24,0 34,5 34,15 0,11 -12,15 -46,15 -40,0 -45,-2 -34,-15 z"
       id="path98" />
    <path
       d="m 700,1280 c -6,-11 -8,-25 -5,-30 3,-5 -3,-13 -12,-19 -20,-12 -9,-14 23,-5 20,5 44,41 44,64 0,18 -39,10 -50,-10 z"
       id="path100" />
    <path
       d="m 885,1263 c -19,-21 -35,-49 -35,-62 0,-20 -2,-22 -15,-11 -26,21 -40,-2 -23,-37 9,-19 22,-29 41,-31 25,-3 27,-1 27,37 0,22 5,43 10,46 6,4 19,24 30,45 27,53 8,60 -35,13 z"
       id="path102" />
    <path
       d="m 1053,1270 c -27,-11 -45,-43 -37,-64 6,-15 47,-22 99,-18 11,1 33,3 49,5 42,3 54,28 31,63 -16,24 -20,26 -23,11 -3,-15 -5,-16 -25,-2 -24,17 -60,18 -94,5 z"
       id="path104" />
    <path
       d="m 1226,1251 c -3,-4 6,-23 19,-41 30,-41 31,-64 5,-115 -11,-22 -20,-48 -20,-58 0,-17 -1,-17 -16,-3 -8,9 -19,16 -24,16 -5,0 -23,12 -40,27 l -32,26 -77,-18 c -110,-26 -113,-29 -105,-73 9,-52 22,-72 45,-72 18,0 19,2 4,30 -8,16 -15,31 -15,33 0,9 94,0 96,-9 1,-5 6,-48 9,-96 6,-78 9,-88 26,-88 16,0 19,8 19,58 0,45 5,63 24,87 19,23 27,27 36,19 9,-9 9,-17 1,-32 -17,-31 14,-92 46,-92 17,0 52,75 53,113 0,32 16,68 36,80 9,5 12,30 10,84 -2,73 -3,77 -36,104 -35,30 -55,36 -64,20 z m 14,-318 c 0,-5 -4,-15 -10,-23 -11,-18 -25,-7 -17,15 6,15 27,21 27,8 z"
       id="path106" />
    <path
       d="m 1354,1099 c -4,-6 -10,-26 -14,-44 -7,-33 -7,-33 37,-44 52,-14 60,-10 61,26 0,49 -63,95 -84,62 z"
       id="path108" />
    <path
       d="m 536,972 c -2,-4 -2,-45 1,-92 6,-80 8,-86 44,-125 33,-36 36,-42 22,-51 -23,-14 -7,-37 20,-28 19,6 20,5 9,-8 -10,-12 -10,-17 0,-26 18,-14 93,-18 152,-8 50,9 72,-2 61,-31 -5,-15 23,-17 44,-4 11,7 25,1 49,-21 24,-20 41,-28 56,-24 11,3 33,6 48,6 14,0 39,10 55,23 15,13 56,35 91,51 45,20 85,50 144,107 45,43 85,79 90,79 4,0 8,7 8,15 0,29 -30,15 -101,-47 -211,-186 -270,-199 -330,-73 -31,66 -59,95 -91,95 -23,0 -23,-6 2,-37 23,-30 26,-62 6,-88 -12,-17 -14,-17 -37,-2 -13,10 -42,17 -65,17 -35,0 -40,3 -40,22 1,17 -13,31 -54,55 -39,23 -58,42 -64,63 -5,16 -17,32 -27,35 -11,4 -19,14 -19,24 0,10 -11,27 -25,39 -14,12 -25,26 -25,32 0,12 -17,13 -24,2 z"
       id="path110" />
    <path
       d="m 1090,766 c -5,-14 -14,-26 -20,-26 -5,0 -10,-7 -10,-15 0,-8 7,-15 15,-15 8,0 17,-11 21,-26 4,-15 12,-24 22,-22 9,2 15,5 15,8 -6,58 -17,111 -24,116 -5,3 -13,-6 -19,-20 z"
       id="path112" />
  </g>
</svg>
